<svg width="512" height="512" viewBox="0 0 512 512" fill="none" xmlns="http://www.w3.org/2000/svg">
<g clip-path="url(#clip0_1419_49)">
<path d="M457.457 394.072C456.028 391.597 453.387 390.072 450.529 390.072L159.372 390.07C153.214 390.07 149.365 383.403 152.444 378.07L298.02 125.919C299.449 123.443 299.449 120.394 298.02 117.919L263.426 57.9997C260.346 52.6665 252.649 52.6664 249.569 57.9996L20.9287 454C17.8494 459.333 21.6985 466 27.857 466L485.124 465.991C491.282 465.991 495.131 459.325 492.052 453.991L457.457 394.072Z" fill="#4ADE80"/>
<path d="M307.613 304.482C301.457 304.48 297.609 297.816 300.686 292.484L347.458 211.412C348.886 208.937 348.886 205.889 347.457 203.414L316.573 149.922C313.493 144.588 305.794 144.589 302.716 149.924L180.398 361.932C177.322 367.264 181.169 373.928 187.325 373.93L432.088 374.003C438.248 374.005 442.099 367.337 439.019 362.003L408.135 308.51C406.706 306.036 404.066 304.511 401.209 304.51L307.613 304.482Z" fill="white"/>
</g>
<defs>
<clipPath id="clip0_1419_49">
<rect width="512" height="512" fill="white"/>
</clipPath>
</defs>
</svg>
