<svg width="1738" height="360" viewBox="0 0 1738 360" fill="none" xmlns="http://www.w3.org/2000/svg">
<g clip-path="url(#clip0_852_1830)">
<path d="M271.916 263.69C270.817 261.781 268.786 260.605 266.588 260.605L88.0361 260.604C83.2997 260.604 80.3397 255.464 82.7075 251.351L171.983 96.3052C173.081 94.3966 173.081 92.0451 171.983 90.1365L151.799 55.0843C149.432 50.9719 143.512 50.9719 141.143 55.0842L0.833481 298.747C-1.53464 302.859 1.42543 308 6.16152 308L286.772 307.995C291.508 307.995 294.468 302.855 292.1 298.742L271.916 263.69Z" fill="#4ADE80"/>
<path d="M179.313 209.551C174.719 209.55 171.849 204.533 174.144 200.518L201.084 153.396C202.15 151.533 202.149 149.238 201.083 147.375L183.742 117.065C181.445 113.048 175.699 113.049 173.403 117.066L101.489 242.848C99.1938 246.863 102.065 251.88 106.658 251.881L250.559 251.925C255.155 251.927 258.029 246.906 255.731 242.89L238.39 212.58C237.324 210.717 235.354 209.569 233.222 209.568L179.313 209.551Z" fill="white"/>
</g>
<path d="M424.008 272L346.696 92.8H391.496L459.08 251.52H432.712L501.32 92.8H542.536L464.968 272H424.008ZM608.044 274.048C596.609 274.048 586.369 271.829 577.324 267.392C568.449 262.955 561.537 256.213 556.588 247.168C551.639 237.952 549.164 226.261 549.164 212.096V134.272H589.1V206.208C589.1 217.643 591.489 226.091 596.268 231.552C601.217 236.843 608.129 239.488 617.004 239.488C623.148 239.488 628.609 238.208 633.388 235.648C638.167 232.917 641.921 228.821 644.652 223.36C647.383 217.728 648.748 210.731 648.748 202.368V134.272H688.684V272H650.796V234.112L657.708 245.12C653.1 254.677 646.273 261.931 637.228 266.88C628.353 271.659 618.625 274.048 608.044 274.048ZM794.034 274.048C778.333 274.048 764.509 270.976 752.562 264.832C740.786 258.688 731.655 250.325 725.17 239.744C718.685 228.992 715.442 216.789 715.442 203.136C715.442 189.312 718.599 177.109 724.914 166.528C731.399 155.776 740.189 147.413 751.282 141.44C762.375 135.296 774.919 132.224 788.914 132.224C802.397 132.224 814.514 135.125 825.266 140.928C836.189 146.56 844.807 154.752 851.122 165.504C857.437 176.085 860.594 188.8 860.594 203.648C860.594 205.184 860.509 206.976 860.338 209.024C860.167 210.901 859.997 212.693 859.826 214.4H747.954V191.104H838.834L823.474 198.016C823.474 190.848 822.023 184.619 819.122 179.328C816.221 174.037 812.21 169.941 807.09 167.04C801.97 163.968 795.997 162.432 789.17 162.432C782.343 162.432 776.285 163.968 770.994 167.04C765.874 169.941 761.863 174.123 758.962 179.584C756.061 184.875 754.61 191.189 754.61 198.528V204.672C754.61 212.181 756.231 218.837 759.474 224.64C762.887 230.272 767.581 234.624 773.554 237.696C779.698 240.597 786.866 242.048 795.058 242.048C802.397 242.048 808.797 240.939 814.258 238.72C819.89 236.501 825.01 233.173 829.618 228.736L850.866 251.776C844.551 258.944 836.615 264.491 827.058 268.416C817.501 272.171 806.493 274.048 794.034 274.048ZM887.182 272V82.048H927.118V272H887.182ZM1032.53 274.048C1016.83 274.048 1003.01 270.976 991.062 264.832C979.286 258.688 970.155 250.325 963.67 239.744C957.185 228.992 953.942 216.789 953.942 203.136C953.942 189.312 957.099 177.109 963.414 166.528C969.899 155.776 978.689 147.413 989.782 141.44C1000.88 135.296 1013.42 132.224 1027.41 132.224C1040.9 132.224 1053.01 135.125 1063.77 140.928C1074.69 146.56 1083.31 154.752 1089.62 165.504C1095.94 176.085 1099.09 188.8 1099.09 203.648C1099.09 205.184 1099.01 206.976 1098.84 209.024C1098.67 210.901 1098.5 212.693 1098.33 214.4H986.454V191.104H1077.33L1061.97 198.016C1061.97 190.848 1060.52 184.619 1057.62 179.328C1054.72 174.037 1050.71 169.941 1045.59 167.04C1040.47 163.968 1034.5 162.432 1027.67 162.432C1020.84 162.432 1014.78 163.968 1009.49 167.04C1004.37 169.941 1000.36 174.123 997.462 179.584C994.561 184.875 993.11 191.189 993.11 198.528V204.672C993.11 212.181 994.731 218.837 997.974 224.64C1001.39 230.272 1006.08 234.624 1012.05 237.696C1018.2 240.597 1025.37 242.048 1033.56 242.048C1040.9 242.048 1047.3 240.939 1052.76 238.72C1058.39 236.501 1063.51 233.173 1068.12 228.736L1089.37 251.776C1083.05 258.944 1075.12 264.491 1065.56 268.416C1056 272.171 1044.99 274.048 1032.53 274.048ZM1172.02 274.048C1160.24 274.048 1148.89 272.683 1137.97 269.952C1127.22 267.051 1118.68 263.467 1112.37 259.2L1125.68 230.528C1132 234.453 1139.42 237.696 1147.95 240.256C1156.66 242.645 1165.19 243.84 1173.55 243.84C1182.77 243.84 1189.26 242.731 1193.01 240.512C1196.94 238.293 1198.9 235.221 1198.9 231.296C1198.9 228.053 1197.36 225.664 1194.29 224.128C1191.39 222.421 1187.46 221.141 1182.51 220.288C1177.56 219.435 1172.1 218.581 1166.13 217.728C1160.33 216.875 1154.44 215.765 1148.47 214.4C1142.49 212.864 1137.03 210.645 1132.08 207.744C1127.13 204.843 1123.12 200.917 1120.05 195.968C1117.15 191.019 1115.7 184.619 1115.7 176.768C1115.7 168.064 1118.17 160.384 1123.12 153.728C1128.24 147.072 1135.58 141.867 1145.14 138.112C1154.7 134.187 1166.13 132.224 1179.44 132.224C1188.83 132.224 1198.39 133.248 1208.11 135.296C1217.84 137.344 1225.95 140.331 1232.43 144.256L1219.12 172.672C1212.47 168.747 1205.72 166.101 1198.9 164.736C1192.24 163.2 1185.76 162.432 1179.44 162.432C1170.57 162.432 1164.08 163.627 1159.99 166.016C1155.89 168.405 1153.84 171.477 1153.84 175.232C1153.84 178.645 1155.29 181.205 1158.19 182.912C1161.27 184.619 1165.28 185.984 1170.23 187.008C1175.18 188.032 1180.55 188.971 1186.35 189.824C1192.33 190.507 1198.3 191.616 1204.27 193.152C1210.25 194.688 1215.62 196.907 1220.4 199.808C1225.35 202.539 1229.36 206.379 1232.43 211.328C1235.51 216.107 1237.04 222.421 1237.04 230.272C1237.04 238.805 1234.48 246.4 1229.36 253.056C1224.24 259.541 1216.82 264.661 1207.09 268.416C1197.53 272.171 1185.84 274.048 1172.02 274.048ZM1308.02 274.048C1296.24 274.048 1284.89 272.683 1273.97 269.952C1263.22 267.051 1254.68 263.467 1248.37 259.2L1261.68 230.528C1268 234.453 1275.42 237.696 1283.95 240.256C1292.66 242.645 1301.19 243.84 1309.55 243.84C1318.77 243.84 1325.26 242.731 1329.01 240.512C1332.94 238.293 1334.9 235.221 1334.9 231.296C1334.9 228.053 1333.36 225.664 1330.29 224.128C1327.39 222.421 1323.46 221.141 1318.51 220.288C1313.56 219.435 1308.1 218.581 1302.13 217.728C1296.33 216.875 1290.44 215.765 1284.47 214.4C1278.49 212.864 1273.03 210.645 1268.08 207.744C1263.13 204.843 1259.12 200.917 1256.05 195.968C1253.15 191.019 1251.7 184.619 1251.7 176.768C1251.7 168.064 1254.17 160.384 1259.12 153.728C1264.24 147.072 1271.58 141.867 1281.14 138.112C1290.7 134.187 1302.13 132.224 1315.44 132.224C1324.83 132.224 1334.39 133.248 1344.11 135.296C1353.84 137.344 1361.95 140.331 1368.43 144.256L1355.12 172.672C1348.47 168.747 1341.72 166.101 1334.9 164.736C1328.24 163.2 1321.76 162.432 1315.44 162.432C1306.57 162.432 1300.08 163.627 1295.99 166.016C1291.89 168.405 1289.84 171.477 1289.84 175.232C1289.84 178.645 1291.29 181.205 1294.19 182.912C1297.27 184.619 1301.28 185.984 1306.23 187.008C1311.18 188.032 1316.55 188.971 1322.35 189.824C1328.33 190.507 1334.3 191.616 1340.27 193.152C1346.25 194.688 1351.62 196.907 1356.4 199.808C1361.35 202.539 1365.36 206.379 1368.43 211.328C1371.51 216.107 1373.04 222.421 1373.04 230.272C1373.04 238.805 1370.48 246.4 1365.36 253.056C1360.24 259.541 1352.82 264.661 1343.09 268.416C1333.53 272.171 1321.84 274.048 1308.02 274.048ZM1552.61 275.072C1527.18 275.072 1507.3 267.989 1492.97 253.824C1478.63 239.659 1471.46 219.435 1471.46 193.152V92.8H1512.93V191.616C1512.93 208.683 1516.43 220.971 1523.43 228.48C1530.43 235.989 1540.24 239.744 1552.87 239.744C1565.5 239.744 1575.31 235.989 1582.31 228.48C1589.31 220.971 1592.81 208.683 1592.81 191.616V92.8H1633.77V193.152C1633.77 219.435 1626.6 239.659 1612.26 253.824C1597.93 267.989 1578.04 275.072 1552.61 275.072ZM1674.75 272V92.8H1716.22V272H1674.75Z" fill="#F3F4F6"/>
<defs>
<clipPath id="clip0_852_1830">
<rect width="293" height="256" fill="white" transform="translate(0 52)"/>
</clipPath>
</defs>
</svg>
