<svg width="14" height="14" viewBox="0 0 14 14" fill="none" xmlns="http://www.w3.org/2000/svg">
  <g clip-path="url(#clip0)">
    <path fill-rule="evenodd" clip-rule="evenodd" d="M8.46679 7.73942H0V6.26575H8.46679V7.73942Z" fill="#6B7280"/>
    <path fill-rule="evenodd" clip-rule="evenodd" d="M6.11346 3.60791L9.51021 7.00061L6.11334 10.3922L5.07016 9.35005L7.42339 7.00044L5.07007 4.64994L6.11346 3.60791Z" fill="#6B7280"/>
    <path fill-rule="evenodd" clip-rule="evenodd" d="M9.49983 2.0743C8.56084 1.59729 7.50507 1.39789 6.45658 1.49954C5.40806 1.60119 4.4104 1.99967 3.58083 2.64813L2.67141 1.48763C3.72219 0.666243 4.98591 0.161507 6.31402 0.0327505C7.64215 -0.0960062 8.97944 0.156567 10.1688 0.760783C11.3581 1.365 12.3501 2.29575 13.0279 3.44363C13.7059 4.59152 14.0417 5.90882 13.9958 7.24074C13.9499 8.57261 13.5242 9.86376 12.7689 10.9624C12.0136 12.061 10.96 12.9215 9.73188 13.4426C8.50373 13.9638 7.15221 14.1239 5.83609 13.9043C4.51999 13.6847 3.29401 13.0944 2.30225 12.2028L3.28939 11.1074C4.07235 11.8113 5.04024 12.2774 6.07928 12.4507C7.11832 12.6242 8.18529 12.4977 9.15485 12.0863C10.1244 11.6748 10.9562 10.9955 11.5526 10.1282C12.1489 9.26088 12.4849 8.24157 12.5211 7.19005C12.5573 6.13853 12.2922 5.09856 11.757 4.19234C11.2218 3.28612 10.4388 2.55131 9.49983 2.0743Z" fill="#6B7280"/>
  </g>
  <defs>
    <clipPath id="clip0">
      <rect width="14" height="14" fill="white"/>
    </clipPath>
  </defs>
</svg>
