<?xml version="1.0" encoding="utf-8"?><!-- Uploaded to: SVG Repo, www.svgrepo.com, Generator: SVG Repo Mixer Tools -->
<svg width="800px" height="800px" viewBox="0 0 24 24" fill="none" xmlns="http://www.w3.org/2000/svg">
<path d="M21 15.5018C18.651 14.5223 17 12.2039 17 9.5C17 6.79774 18.6534 4.48062 21 3.5C20.2304 3.17906 19.3859 3 18.5 3C15.7977 3 13.4806 4.64899 12.5 6.9956M6.9 21C4.74609 21 3 19.2889 3 17.1781C3 15.4286 4.3 13.8125 6.25 13.5C6.86168 12.0617 8.30934 11 9.9978 11C12.1607 11 13.9285 12.6589 14.05 14.75C15.1978 15.2463 16 16.4645 16 17.7835C16 19.5599 14.5449 21 12.75 21L6.9 21Z" stroke="#000000" stroke-width="2" stroke-linecap="round" stroke-linejoin="round"/>
</svg>