<svg width="14" height="14" viewBox="0 0 14 14" fill="none" xmlns="http://www.w3.org/2000/svg">
  <g clip-path="url(#clip0)">
    <path fill-rule="evenodd" clip-rule="evenodd" d="M1.02393 6.23718H9.33324V7.7577H1.02393V6.23718Z" fill="#6B7280"/>
    <path fill-rule="evenodd" clip-rule="evenodd" d="M3.33362 10.5L0 6.99942L3.3337 3.5L4.35749 4.57534L2.04803 6.99965L4.35759 9.42486L3.33362 10.5Z" fill="#6B7280"/>
    <path fill-rule="evenodd" clip-rule="evenodd" d="M6.67312 12.5247C7.68923 12.5486 8.69326 12.3064 9.58046 11.8234C10.4676 11.3405 11.2052 10.6345 11.7164 9.77917C12.2275 8.92383 12.4934 7.9506 12.4863 6.96109C12.4791 5.97152 12.1992 5.00204 11.6757 4.15382C11.1522 3.3056 10.4044 2.60979 9.51034 2.13904C8.61632 1.6683 7.60885 1.43991 6.59321 1.47772C5.57751 1.51553 4.5909 1.81815 3.7364 2.35398L2.91675 1.11505C3.99912 0.436327 5.24883 0.0530028 6.53534 0.00511245C7.82188 -0.042779 9.09798 0.246519 10.2305 0.842788C11.3629 1.43906 12.3101 2.32043 12.9732 3.39484C13.6363 4.46925 13.9908 5.69729 13.9999 6.95071C14.0089 8.20412 13.6722 9.43688 13.0247 10.5202C12.3773 11.6037 11.4429 12.4979 10.3192 13.1097C9.19551 13.7214 7.92367 14.0282 6.63661 13.998C5.34952 13.9677 4.09438 13.6016 3.00229 12.9377L3.80393 11.6877C4.66611 12.2118 5.657 12.5008 6.67312 12.5247Z" fill="#6B7280"/>
  </g>
</svg>
