<svg width="24" height="24" viewBox="0 0 24 24" fill="none" xmlns="http://www.w3.org/2000/svg">
<path d="M20.125 4H3.875C2.83947 4 2 4.83947 2 5.875C2 6.91053 2.83947 7.75 3.875 7.75H20.125C21.1605 7.75 22 6.91053 22 5.875C22 4.83947 21.1605 4 20.125 4Z" fill="#000000"/>
<path fill-rule="evenodd" clip-rule="evenodd" d="M3.875 16.45H20.125C21.1605 16.45 22 17.2894 22 18.325C22 19.3605 21.1605 20.2 20.125 20.2H3.875C2.83947 20.2 2 19.3605 2 18.325C2 17.2894 2.83947 16.45 3.875 16.45ZM3.875 10.2H20.125C21.1605 10.2 22 11.0394 22 12.075C22 13.1105 21.1605 13.95 20.125 13.95H3.875C2.83947 13.95 2 13.1105 2 12.075C2 11.0394 2.83947 10.2 3.875 10.2Z" fill="#000000"/>
</svg>
