<svg width="32" height="32" viewBox="0 0 32 32" fill="none" xmlns="http://www.w3.org/2000/svg">
<path
        d="M16.2413 23.2125L16.0006 23.0803L15.7598 23.2125L10.5495 26.075C10.185 26.2753 9.72036 26.1387 9.51419 25.7289C9.43154 25.5646 9.4023 25.3745 9.43275 25.1889L10.4278 19.1261L10.4689 18.8758L10.2912 18.6948L6.07602 14.401C5.75933 14.0784 5.75221 13.5392 6.06179 13.2073L5.69616 12.8662L6.06179 13.2073C6.18265 13.0777 6.33767 12.9967 6.50127 12.9718L12.3266 12.0873L12.5899 12.0473L12.7036 11.8064L15.3088 6.29025C15.5054 5.87382 15.9674 5.7256 16.3359 5.91566C16.487 5.99359 16.6138 6.1238 16.6924 6.29025L19.2975 11.8064L19.4113 12.0473L19.6746 12.0873L25.4999 12.9718C25.9074 13.0337 26.225 13.4425 26.1587 13.9195C26.1327 14.1059 26.0492 14.2747 25.9251 14.401L21.7099 18.6948L21.5322 18.8758L21.5733 19.1261L22.5684 25.1889C22.6463 25.664 22.3387 26.0821 21.9319 26.155C21.769 26.1842 21.6006 26.1569 21.4516 26.075L16.2413 23.2125Z"
        stroke="#000000"
/>
</svg>
