<svg width="20" height="14" viewBox="0 0 20 14" fill="none" xmlns="http://www.w3.org/2000/svg">
<path d="M15.8188 5.4075C15.2804 2.60437 12.8817 0.5 10 0.5C7.71208 0.5 5.725 1.8325 4.73542 3.7825C2.3525 4.0425 0.5 6.11438 0.5 8.625C0.5 11.3144 2.62958 13.5 5.25 13.5H15.5417C17.7267 13.5 19.5 11.68 19.5 9.4375C19.5 7.2925 17.8771 5.55375 15.8188 5.4075ZM15.5417 11.875H5.25C3.50042 11.875 2.08333 10.4206 2.08333 8.625C2.08333 6.95937 3.29458 5.57 4.90167 5.39937L5.74875 5.31L6.14458 4.53813C6.89667 3.05125 8.36917 2.125 10 2.125C12.0742 2.125 13.8633 3.63625 14.2671 5.72438L14.5046 6.94313L15.7158 7.0325C16.9508 7.11375 17.9167 8.17812 17.9167 9.4375C17.9167 10.7781 16.8479 11.875 15.5417 11.875ZM11.1479 5.8625C11.1479 5.59326 10.9353 5.375 10.6729 5.375H9.32708C9.06475 5.375 8.85208 5.59326 8.85208 5.8625V7.8125H7.98008C7.55691 7.8125 7.34498 8.33761 7.64421 8.64471L9.66413 10.7178C9.84962 10.9082 10.1504 10.9082 10.3359 10.7178L12.3558 8.64471C12.655 8.33761 12.4431 7.8125 12.0199 7.8125H11.1479V5.8625Z" fill="#9CA3AF"/>
</svg>
